<svg version="1.1" viewBox="0.0 0.0 232.1758530183727 213.18635170603673" fill="none" stroke="none" stroke-linecap="square" stroke-miterlimit="10" xmlns:xlink="http://www.w3.org/1999/xlink" xmlns="http://www.w3.org/2000/svg"><clipPath id="p.0"><path d="m0 0l232.17586 0l0 213.18636l-232.17586 0l0 -213.18636z" clip-rule="nonzero"/></clipPath><g clip-path="url(#p.0)"><path fill="#000000" fill-opacity="0.0" d="m0 0l232.17586 0l0 213.18636l-232.17586 0z" fill-rule="evenodd"/><path fill="#648fff" d="m15.657487 147.59421l0 0c0 -0.52474976 0.4253893 -0.9501343 0.9501314 -0.9501343l151.76132 0c0.25198364 0 0.49365234 0.100112915 0.6718445 0.2782898c0.17817688 0.17819214 0.27827454 0.41986084 0.27827454 0.6718445l0 3.800415c0 0.52474976 -0.42538452 0.9501343 -0.950119 0.9501343l-151.76132 0c-0.5247421 0 -0.9501314 -0.42538452 -0.9501314 -0.9501343z" fill-rule="evenodd"/><path fill="#ffffff" d="m114.11194 18.340355l0 0c0 -2.8340893 2.2974854 -5.131572 5.1315765 -5.131572l20.525665 0l0 0c1.3609772 0 2.666214 0.54064655 3.6285706 1.5030022c0.96235657 0.96235657 1.503006 2.2675924 1.503006 3.6285696l0 120.082146c0 2.8340912 -2.2974854 5.1315613 -5.1315765 5.1315613l-20.525665 0c-2.8340912 0 -5.1315765 -2.29747 -5.1315765 -5.1315613z" fill-rule="evenodd"/><path stroke="#ffb000" stroke-width="2.0" stroke-linejoin="round" stroke-linecap="butt" d="m114.11194 18.340355l0 0c0 -2.8340893 2.2974854 -5.131572 5.1315765 -5.131572l20.525665 0l0 0c1.3609772 0 2.666214 0.54064655 3.6285706 1.5030022c0.96235657 0.96235657 1.503006 2.2675924 1.503006 3.6285696l0 120.082146c0 2.8340912 -2.2974854 5.1315613 -5.1315765 5.1315613l-20.525665 0c-2.8340912 0 -5.1315765 -2.29747 -5.1315765 -5.1315613z" fill-rule="evenodd"/><path fill="#ffffff" d="m74.97754 69.80055l0 0c0 -2.8340912 2.2974854 -5.1315765 5.131569 -5.1315765l20.525673 0l0 0c1.3609772 0 2.666214 0.5406494 3.6285706 1.503006c0.96234894 0.96235657 1.5029984 2.2675934 1.5029984 3.6285706l0 68.62195c0 2.8340912 -2.2974854 5.1315613 -5.131569 5.1315613l-20.525673 0c-2.8340836 0 -5.131569 -2.29747 -5.131569 -5.1315613z" fill-rule="evenodd"/><path stroke="#ffb000" stroke-width="2.0" stroke-linejoin="round" stroke-linecap="butt" d="m74.97754 69.80055l0 0c0 -2.8340912 2.2974854 -5.1315765 5.131569 -5.1315765l20.525673 0l0 0c1.3609772 0 2.666214 0.5406494 3.6285706 1.503006c0.96234894 0.96235657 1.5029984 2.2675934 1.5029984 3.6285706l0 68.62195c0 2.8340912 -2.2974854 5.1315613 -5.131569 5.1315613l-20.525673 0c-2.8340836 0 -5.131569 -2.29747 -5.131569 -5.1315613z" fill-rule="evenodd"/><path fill="#ffffff" d="m35.84314 42.10175l0 0c0 -2.8340912 2.2974854 -5.1315727 5.1315727 -5.1315727l20.525665 0l0 0c1.3609772 0 2.6662102 0.5406456 3.6285667 1.5030022c0.96235657 0.96235657 1.503006 2.2675934 1.503006 3.6285706l0 96.329315c0 2.8340912 -2.2974854 5.1315613 -5.1315727 5.1315613l-20.525665 0c-2.8340874 0 -5.1315727 -2.29747 -5.1315727 -5.1315613z" fill-rule="evenodd"/><path stroke="#ffb000" stroke-width="2.0" stroke-linejoin="round" stroke-linecap="butt" d="m35.84314 42.10175l0 0c0 -2.8340912 2.2974854 -5.1315727 5.1315727 -5.1315727l20.525665 0l0 0c1.3609772 0 2.6662102 0.5406456 3.6285667 1.5030022c0.96235657 0.96235657 1.503006 2.2675934 1.503006 3.6285706l0 96.329315c0 2.8340912 -2.2974854 5.1315613 -5.1315727 5.1315613l-20.525665 0c-2.8340874 0 -5.1315727 -2.29747 -5.1315727 -5.1315613z" fill-rule="evenodd"/><path fill="#648fff" d="m29.164484 11.471152l0 0c0.52474403 0 0.95013237 0.42538834 0.95013237 0.95013237l0 151.76132c0 0.25198364 -0.10010147 0.49365234 -0.27828598 0.6718445c-0.17818451 0.17817688 -0.41985512 0.2782898 -0.6718464 0.2782898l-3.800415 0c-0.52474403 0 -0.95013237 -0.42538452 -0.95013237 -0.9501343l0 -151.76132c0 -0.52474403 0.42538834 -0.95013237 0.95013237 -0.95013237z" fill-rule="evenodd"/><g filter="url(#shadowFilter-p.1)"><use xlink:href="#p.1" transform="matrix(1.0 0.0 0.0 1.0 0.0 2.0)"/></g><defs><filter id="shadowFilter-p.1" filterUnits="userSpaceOnUse"><feGaussianBlur in="SourceAlpha" stdDeviation="2.0" result="blur"/><feComponentTransfer in="blur" color-interpolation-filters="sRGB"><feFuncR type="linear" slope="0" intercept="0.0"/><feFuncG type="linear" slope="0" intercept="0.0"/><feFuncB type="linear" slope="0" intercept="0.0"/><feFuncA type="linear" slope="0.6" intercept="0"/></feComponentTransfer></filter></defs><g id="p.1"><path fill="#ffffff" d="m163.14247 104.587814l19.253067 0l0 0c8.201599 0 16.067291 3.2580795 21.8667 9.05748c5.7993927 5.799408 9.05748 13.665092 9.05748 21.8667l0 20.935043c0 5.5168304 -4.47229 9.9891205 -9.989136 9.9891205l-61.123154 0c-5.5168457 0 -9.9891205 -4.47229 -9.9891205 -9.9891205l0 -20.935043l0 0c0 -17.078957 13.845215 -30.92418 30.924164 -30.92418z" fill-rule="evenodd"/><path stroke="#648fff" stroke-width="8.0" stroke-linejoin="round" stroke-linecap="butt" d="m163.14247 104.587814l19.253067 0l0 0c8.201599 0 16.067291 3.2580795 21.8667 9.05748c5.7993927 5.799408 9.05748 13.665092 9.05748 21.8667l0 20.935043c0 5.5168304 -4.47229 9.9891205 -9.989136 9.9891205l-61.123154 0c-5.5168457 0 -9.9891205 -4.47229 -9.9891205 -9.9891205l0 -20.935043l0 0c0 -17.078957 13.845215 -30.92418 30.924164 -30.92418z" fill-rule="evenodd"/></g><path fill="#648fff" d="m132.2183 125.25732l81.10141 0c1.6784668E-4 0 3.5095215E-4 6.866455E-5 4.7302246E-4 1.9836426E-4c1.2207031E-4 1.296997E-4 1.9836426E-4 2.975464E-4 1.9836426E-4 4.8065186E-4l-6.713867E-4 34.51091c0 3.6713715 -2.976242 6.6476135 -6.647629 6.6476135l-67.80615 0c-3.6713867 0 -6.647629 -2.976242 -6.647629 -6.6476135l0 -34.51159l0 0c0 -3.7384033E-4 3.0517578E-4 -6.790161E-4 6.713867E-4 -6.790161E-4z" fill-rule="evenodd"/><path stroke="#648fff" stroke-width="1.0" stroke-linejoin="round" stroke-linecap="butt" d="m132.2183 125.25732l81.10141 0c1.6784668E-4 0 3.5095215E-4 6.866455E-5 4.7302246E-4 1.9836426E-4c1.2207031E-4 1.296997E-4 1.9836426E-4 2.975464E-4 1.9836426E-4 4.8065186E-4l-6.713867E-4 34.51091c0 3.6713715 -2.976242 6.6476135 -6.647629 6.6476135l-67.80615 0c-3.6713867 0 -6.647629 -2.976242 -6.647629 -6.6476135l0 -34.51159l0 0c0 -3.7384033E-4 3.0517578E-4 -6.790161E-4 6.713867E-4 -6.790161E-4z" fill-rule="evenodd"/><path fill="#648fff" d="m199.05716 150.50383l0 0c0 -3.9616394 3.2115326 -7.173172 7.173172 -7.173172l2.0832672 0l0 0c1.9024353 0 3.7269592 0.7557373 5.0721893 2.1009674c1.3452301 1.3452301 2.1009827 3.169754 2.1009827 5.0722046l0 20.168c0 3.9616394 -3.2115479 7.173172 -7.173172 7.173172l-2.0832672 0c-3.9616394 0 -7.173172 -3.2115326 -7.173172 -7.173172z" fill-rule="evenodd"/><path stroke="#648fff" stroke-width="1.0" stroke-linejoin="round" stroke-linecap="butt" d="m199.05716 150.50383l0 0c0 -3.9616394 3.2115326 -7.173172 7.173172 -7.173172l2.0832672 0l0 0c1.9024353 0 3.7269592 0.7557373 5.0721893 2.1009674c1.3452301 1.3452301 2.1009827 3.169754 2.1009827 5.0722046l0 20.168c0 3.9616394 -3.2115479 7.173172 -7.173172 7.173172l-2.0832672 0c-3.9616394 0 -7.173172 -3.2115326 -7.173172 -7.173172z" fill-rule="evenodd"/><path fill="#648fff" d="m129.97162 150.50383l0 0c0 -3.9616394 3.2115479 -7.173172 7.173172 -7.173172l2.0832825 0l0 0c1.9024353 0 3.7269592 0.7557373 5.0721893 2.1009674c1.3452301 1.3452301 2.1009674 3.169754 2.1009674 5.0722046l0 20.168c0 3.9616394 -3.2115326 7.173172 -7.1731567 7.173172l-2.0832825 0c-3.9616241 0 -7.173172 -3.2115326 -7.173172 -7.173172z" fill-rule="evenodd"/><path stroke="#648fff" stroke-width="1.0" stroke-linejoin="round" stroke-linecap="butt" d="m129.97162 150.50383l0 0c0 -3.9616394 3.2115479 -7.173172 7.173172 -7.173172l2.0832825 0l0 0c1.9024353 0 3.7269592 0.7557373 5.0721893 2.1009674c1.3452301 1.3452301 2.1009674 3.169754 2.1009674 5.0722046l0 20.168c0 3.9616394 -3.2115326 7.173172 -7.1731567 7.173172l-2.0832825 0c-3.9616241 0 -7.173172 -3.2115326 -7.173172 -7.173172z" fill-rule="evenodd"/><g filter="url(#shadowFilter-p.2)"><use xlink:href="#p.2" transform="matrix(1.0 0.0 0.0 1.0 0.0 2.0)"/></g><defs><filter id="shadowFilter-p.2" filterUnits="userSpaceOnUse"><feGaussianBlur in="SourceAlpha" stdDeviation="2.0" result="blur"/><feComponentTransfer in="blur" color-interpolation-filters="sRGB"><feFuncR type="linear" slope="0" intercept="0.0"/><feFuncG type="linear" slope="0" intercept="0.0"/><feFuncB type="linear" slope="0" intercept="0.0"/><feFuncA type="linear" slope="0.7" intercept="0"/></feComponentTransfer></filter></defs><g id="p.2"><path fill="#ffffff" d="m107.14248 128.58781l19.25306 0l0 0c8.201599 0 16.067291 3.258072 21.8667 9.05748c5.7993927 5.799408 9.05748 13.6651 9.05748 21.8667l0 20.935043c0 5.5168304 -4.47229 9.9891205 -9.989136 9.9891205l-61.123154 0c-5.516838 0 -9.9891205 -4.47229 -9.9891205 -9.9891205l0 -20.935043l0 0c0 -17.078949 13.845222 -30.92418 30.924171 -30.92418z" fill-rule="evenodd"/><path stroke="#648fff" stroke-width="8.0" stroke-linejoin="round" stroke-linecap="butt" d="m107.14248 128.58781l19.25306 0l0 0c8.201599 0 16.067291 3.258072 21.8667 9.05748c5.7993927 5.799408 9.05748 13.6651 9.05748 21.8667l0 20.935043c0 5.5168304 -4.47229 9.9891205 -9.989136 9.9891205l-61.123154 0c-5.516838 0 -9.9891205 -4.47229 -9.9891205 -9.9891205l0 -20.935043l0 0c0 -17.078949 13.845222 -30.92418 30.924171 -30.92418z" fill-rule="evenodd"/></g><path fill="#648fff" d="m76.21831 149.25731l81.10141 0c1.6784668E-4 0 3.5095215E-4 7.6293945E-5 4.7302246E-4 1.9836426E-4c1.2207031E-4 1.373291E-4 1.9836426E-4 3.0517578E-4 1.9836426E-4 4.8828125E-4l-6.713867E-4 34.51091c0 3.6713715 -2.976242 6.6476135 -6.647629 6.6476135l-67.80616 0c-3.671379 0 -6.647621 -2.976242 -6.647621 -6.6476135l0 -34.511597l0 0c0 -3.6621094E-4 2.975464E-4 -6.713867E-4 6.713867E-4 -6.713867E-4z" fill-rule="evenodd"/><path stroke="#648fff" stroke-width="1.0" stroke-linejoin="round" stroke-linecap="butt" d="m76.21831 149.25731l81.10141 0c1.6784668E-4 0 3.5095215E-4 7.6293945E-5 4.7302246E-4 1.9836426E-4c1.2207031E-4 1.373291E-4 1.9836426E-4 3.0517578E-4 1.9836426E-4 4.8828125E-4l-6.713867E-4 34.51091c0 3.6713715 -2.976242 6.6476135 -6.647629 6.6476135l-67.80616 0c-3.671379 0 -6.647621 -2.976242 -6.647621 -6.6476135l0 -34.511597l0 0c0 -3.6621094E-4 2.975464E-4 -6.713867E-4 6.713867E-4 -6.713867E-4z" fill-rule="evenodd"/><path fill="#648fff" d="m143.05716 174.50383l0 0c0 -3.9616394 3.2115326 -7.173172 7.173172 -7.173172l2.0832672 0l0 0c1.9024353 0 3.7269592 0.7557373 5.0721893 2.1009674c1.3452301 1.3452301 2.1009827 3.169754 2.1009827 5.0722046l0 20.168c0 3.9616394 -3.2115479 7.173172 -7.173172 7.173172l-2.0832672 0c-3.9616394 0 -7.173172 -3.2115326 -7.173172 -7.173172z" fill-rule="evenodd"/><path stroke="#648fff" stroke-width="1.0" stroke-linejoin="round" stroke-linecap="butt" d="m143.05716 174.50383l0 0c0 -3.9616394 3.2115326 -7.173172 7.173172 -7.173172l2.0832672 0l0 0c1.9024353 0 3.7269592 0.7557373 5.0721893 2.1009674c1.3452301 1.3452301 2.1009827 3.169754 2.1009827 5.0722046l0 20.168c0 3.9616394 -3.2115479 7.173172 -7.173172 7.173172l-2.0832672 0c-3.9616394 0 -7.173172 -3.2115326 -7.173172 -7.173172z" fill-rule="evenodd"/><path fill="#648fff" d="m73.97163 174.50383l0 0c0 -3.9616394 3.2115326 -7.173172 7.1731644 -7.173172l2.0832748 0l0 0c1.9024429 0 3.7269669 0.7557373 5.072197 2.1009674c1.3452301 1.3452301 2.1009674 3.169754 2.1009674 5.0722046l0 20.168c0 3.9616394 -3.2115326 7.173172 -7.1731644 7.173172l-2.0832748 0c-3.9616318 0 -7.1731644 -3.2115326 -7.1731644 -7.173172z" fill-rule="evenodd"/><path stroke="#648fff" stroke-width="1.0" stroke-linejoin="round" stroke-linecap="butt" d="m73.97163 174.50383l0 0c0 -3.9616394 3.2115326 -7.173172 7.1731644 -7.173172l2.0832748 0l0 0c1.9024429 0 3.7269669 0.7557373 5.072197 2.1009674c1.3452301 1.3452301 2.1009674 3.169754 2.1009674 5.0722046l0 20.168c0 3.9616394 -3.2115326 7.173172 -7.1731644 7.173172l-2.0832748 0c-3.9616318 0 -7.1731644 -3.2115326 -7.1731644 -7.173172z" fill-rule="evenodd"/></g></svg>