<svg version="1.1" viewBox="0.0 0.0 626.4015748031496 284.37007874015745" fill="none" stroke="none" stroke-linecap="square" stroke-miterlimit="10" xmlns:xlink="http://www.w3.org/1999/xlink" xmlns="http://www.w3.org/2000/svg"><clipPath id="p.0"><path d="m0 0l626.40155 0l0 284.3701l-626.40155 0l0 -284.3701z" clip-rule="nonzero"/></clipPath><g clip-path="url(#p.0)"><path fill="#000000" fill-opacity="0.0" d="m0 0l626.40155 0l0 284.3701l-626.40155 0z" fill-rule="evenodd"/><g filter="url(#shadowFilter-p.1)"><use xlink:href="#p.1" transform="matrix(1.0 0.0 0.0 1.0 0.0 2.0)"/></g><defs><filter id="shadowFilter-p.1" filterUnits="userSpaceOnUse"><feGaussianBlur in="SourceAlpha" stdDeviation="2.0" result="blur"/><feComponentTransfer in="blur" color-interpolation-filters="sRGB"><feFuncR type="linear" slope="0" intercept="0.0"/><feFuncG type="linear" slope="0" intercept="0.0"/><feFuncB type="linear" slope="0" intercept="0.0"/><feFuncA type="linear" slope="0.32" intercept="0"/></feComponentTransfer></filter></defs><g id="p.1"><path fill="#000000" fill-opacity="0.0" d="m230.66135 -2.6929133l436.40945 0l0 307.02362l-436.40945 0z" fill-rule="evenodd"/><path fill="#ffb000" d="m305.8801 236.75645q-21.125 0 -33.109375 -8.296875q-11.984375 -8.3125 -16.734375 -22.671875q-4.75 -14.359375 -4.75 -33.109375l0 -68.59375q0 -19.6875 4.75 -34.15625q4.75 -14.484371 16.734375 -22.312496q11.984375 -7.84375 33.109375 -7.84375q19.9375 0 31.203125 6.765625q11.28125 6.765625 16.015625 19.343746q4.75 12.578125 4.75 29.1875l0 16.140625l-33.703125 0l0 -16.609375q0 -8.078125 -0.828125 -14.71875q-0.828125 -6.640625 -4.515625 -10.546875q-3.671875 -3.921875 -12.6875 -3.921875q-9.015625 0 -13.171875 4.15625q-4.15625 4.140625 -5.34375 11.140625q-1.1875 7.0 -1.1875 15.78125l0 83.546875q0 10.4375 1.65625 17.203125q1.671875 6.765625 6.0625 10.203125q4.390625 3.4375 11.984375 3.4375q8.78125 0 12.453125 -4.140625q3.6875 -4.15625 4.625 -11.03125q0.953125 -6.890625 0.953125 -15.4375l0 -17.328125l33.703125 0l0 15.4375q0 17.078125 -4.515625 30.25q-4.5 13.171875 -15.78125 20.65625q-11.265625 7.46875 -31.671875 7.46875zm66.688385 -2.609375l38.4375 -192.23438l37.5 0l38.453156 192.23438l-32.515656 0l-7.59375 -44.375l-33.46875 0l-7.828125 44.375l-32.984375 0zm44.375 -66.6875l26.109375 0l-13.046875 -80.6875l-13.0625 80.6875zm98.257996 66.6875l0 -166.35938l-30.62497 0l0 -25.874996l95.890594 0l0 25.874996l-30.140625 0l0 166.35938l-35.125 0z" fill-rule="nonzero"/></g><path fill="#648fff" d="m26.069561 184.12439l0 0c0 -0.5247345 0.42538834 -0.9501343 0.95013237 -0.9501343l151.7613 0c0.2519989 0 0.4936676 0.100112915 0.6718445 0.2782898c0.17819214 0.17819214 0.2782898 0.41986084 0.2782898 0.6718445l0 3.800415c0 0.52474976 -0.42538452 0.9501343 -0.9501343 0.9501343l-151.7613 0c-0.52474403 0 -0.95013237 -0.42538452 -0.95013237 -0.9501343z" fill-rule="evenodd"/><path fill="#ffffff" d="m124.52402 54.870537l0 0c0 -2.8340874 2.2974777 -5.131569 5.1315613 -5.131569l20.52568 0l0 0c1.3609772 0 2.6661987 0.5406456 3.6285553 1.5030022c0.96235657 0.96235657 1.503006 2.2675896 1.503006 3.6285667l0 120.082146c0 2.8340912 -2.2974854 5.1315765 -5.1315613 5.1315765l-20.52568 0c-2.8340836 0 -5.1315613 -2.2974854 -5.1315613 -5.1315765z" fill-rule="evenodd"/><path stroke="#ffb000" stroke-width="2.0" stroke-linejoin="round" stroke-linecap="butt" d="m124.52402 54.870537l0 0c0 -2.8340874 2.2974777 -5.131569 5.1315613 -5.131569l20.52568 0l0 0c1.3609772 0 2.6661987 0.5406456 3.6285553 1.5030022c0.96235657 0.96235657 1.503006 2.2675896 1.503006 3.6285667l0 120.082146c0 2.8340912 -2.2974854 5.1315765 -5.1315613 5.1315765l-20.52568 0c-2.8340836 0 -5.1315613 -2.2974854 -5.1315613 -5.1315765z" fill-rule="evenodd"/><path fill="#ffffff" d="m85.38962 106.330734l0 0c0 -2.8340912 2.2974777 -5.131569 5.131569 -5.131569l20.525665 0l0 0c1.3609772 0 2.666214 0.5406418 3.6285706 1.5029984c0.96235657 0.96235657 1.5029984 2.2675934 1.5029984 3.6285706l0 68.62195c0 2.8340912 -2.2974777 5.1315765 -5.131569 5.1315765l-20.525665 0c-2.8340912 0 -5.131569 -2.2974854 -5.131569 -5.1315765z" fill-rule="evenodd"/><path stroke="#ffb000" stroke-width="2.0" stroke-linejoin="round" stroke-linecap="butt" d="m85.38962 106.330734l0 0c0 -2.8340912 2.2974777 -5.131569 5.131569 -5.131569l20.525665 0l0 0c1.3609772 0 2.666214 0.5406418 3.6285706 1.5029984c0.96235657 0.96235657 1.5029984 2.2675934 1.5029984 3.6285706l0 68.62195c0 2.8340912 -2.2974777 5.1315765 -5.131569 5.1315765l-20.525665 0c-2.8340912 0 -5.131569 -2.2974854 -5.131569 -5.1315765z" fill-rule="evenodd"/><path fill="#ffffff" d="m46.255215 78.631935l0 0c0 -2.8340912 2.2974815 -5.1315765 5.131569 -5.1315765l20.52567 0l0 0c1.3609772 0 2.666214 0.5406494 3.6285706 1.503006c0.96235657 0.96235657 1.5029984 2.2675934 1.5029984 3.6285706l0 96.32931c0 2.8340912 -2.2974777 5.1315613 -5.131569 5.1315613l-20.52567 0c-2.8340874 0 -5.131569 -2.29747 -5.131569 -5.1315613z" fill-rule="evenodd"/><path stroke="#ffb000" stroke-width="2.0" stroke-linejoin="round" stroke-linecap="butt" d="m46.255215 78.631935l0 0c0 -2.8340912 2.2974815 -5.1315765 5.131569 -5.1315765l20.52567 0l0 0c1.3609772 0 2.666214 0.5406494 3.6285706 1.503006c0.96235657 0.96235657 1.5029984 2.2675934 1.5029984 3.6285706l0 96.32931c0 2.8340912 -2.2974777 5.1315613 -5.131569 5.1315613l-20.52567 0c-2.8340874 0 -5.131569 -2.29747 -5.131569 -5.1315613z" fill-rule="evenodd"/><path fill="#648fff" d="m39.576557 48.001335l0 0c0.52474594 0 0.9501343 0.42538834 0.9501343 0.9501343l0 151.76132c0 0.25198364 -0.100105286 0.4936676 -0.2782898 0.6718445c-0.1781807 0.17819214 -0.4198532 0.2782898 -0.6718445 0.2782898l-3.800415 0c-0.5247421 0 -0.95013046 -0.42538452 -0.95013046 -0.9501343l0 -151.76132c0 -0.52474594 0.42538834 -0.9501343 0.95013046 -0.9501343z" fill-rule="evenodd"/><g filter="url(#shadowFilter-p.2)"><use xlink:href="#p.2" transform="matrix(1.0 0.0 0.0 1.0 0.0 2.0)"/></g><defs><filter id="shadowFilter-p.2" filterUnits="userSpaceOnUse"><feGaussianBlur in="SourceAlpha" stdDeviation="2.0" result="blur"/><feComponentTransfer in="blur" color-interpolation-filters="sRGB"><feFuncR type="linear" slope="0" intercept="0.0"/><feFuncG type="linear" slope="0" intercept="0.0"/><feFuncB type="linear" slope="0" intercept="0.0"/><feFuncA type="linear" slope="0.6" intercept="0"/></feComponentTransfer></filter></defs><g id="p.2"><path fill="#ffffff" d="m173.55455 141.118l19.253067 0l0 0c8.201599 0 16.067276 3.258072 21.866684 9.05748c5.799408 5.799408 9.05748 13.6651 9.05748 21.8667l0 20.935043c0 5.5168457 -4.472275 9.9891205 -9.9891205 9.9891205l-61.123154 0c-5.5168457 0 -9.9891205 -4.472275 -9.9891205 -9.9891205l0 -20.935043l0 0c0 -17.078949 13.845215 -30.92418 30.924164 -30.92418z" fill-rule="evenodd"/><path stroke="#648fff" stroke-width="8.0" stroke-linejoin="round" stroke-linecap="butt" d="m173.55455 141.118l19.253067 0l0 0c8.201599 0 16.067276 3.258072 21.866684 9.05748c5.799408 5.799408 9.05748 13.6651 9.05748 21.8667l0 20.935043c0 5.5168457 -4.472275 9.9891205 -9.9891205 9.9891205l-61.123154 0c-5.5168457 0 -9.9891205 -4.472275 -9.9891205 -9.9891205l0 -20.935043l0 0c0 -17.078949 13.845215 -30.92418 30.924164 -30.92418z" fill-rule="evenodd"/></g><path fill="#648fff" d="m142.63039 161.7875l81.101395 0c1.8310547E-4 0 3.5095215E-4 6.1035156E-5 4.8828125E-4 1.9836426E-4c1.2207031E-4 1.2207031E-4 1.8310547E-4 2.89917E-4 1.8310547E-4 4.7302246E-4l-6.713867E-4 34.51091c0 3.6713715 -2.976242 6.6476135 -6.6476135 6.6476135l-67.80617 0c-3.6713715 0 -6.6476135 -2.976242 -6.6476135 -6.6476135l0 -34.51158l0 0c0 -3.8146973E-4 2.89917E-4 -6.866455E-4 6.713867E-4 -6.866455E-4z" fill-rule="evenodd"/><path stroke="#648fff" stroke-width="1.0" stroke-linejoin="round" stroke-linecap="butt" d="m142.63039 161.7875l81.101395 0c1.8310547E-4 0 3.5095215E-4 6.1035156E-5 4.8828125E-4 1.9836426E-4c1.2207031E-4 1.2207031E-4 1.8310547E-4 2.89917E-4 1.8310547E-4 4.7302246E-4l-6.713867E-4 34.51091c0 3.6713715 -2.976242 6.6476135 -6.6476135 6.6476135l-67.80617 0c-3.6713715 0 -6.6476135 -2.976242 -6.6476135 -6.6476135l0 -34.51158l0 0c0 -3.8146973E-4 2.89917E-4 -6.866455E-4 6.713867E-4 -6.866455E-4z" fill-rule="evenodd"/><path fill="#648fff" d="m209.46924 187.03401l0 0c0 -3.9616394 3.2115326 -7.173172 7.1731567 -7.173172l2.0832825 0l0 0c1.9024353 0 3.7269592 0.7557373 5.0721893 2.1009674c1.3452301 1.3452301 2.1009674 3.169754 2.1009674 5.0722046l0 20.168c0 3.9616394 -3.2115326 7.173172 -7.1731567 7.173172l-2.0832825 0c-3.9616241 0 -7.1731567 -3.2115326 -7.1731567 -7.173172z" fill-rule="evenodd"/><path stroke="#648fff" stroke-width="1.0" stroke-linejoin="round" stroke-linecap="butt" d="m209.46924 187.03401l0 0c0 -3.9616394 3.2115326 -7.173172 7.1731567 -7.173172l2.0832825 0l0 0c1.9024353 0 3.7269592 0.7557373 5.0721893 2.1009674c1.3452301 1.3452301 2.1009674 3.169754 2.1009674 5.0722046l0 20.168c0 3.9616394 -3.2115326 7.173172 -7.1731567 7.173172l-2.0832825 0c-3.9616241 0 -7.1731567 -3.2115326 -7.1731567 -7.173172z" fill-rule="evenodd"/><path fill="#648fff" d="m140.3837 187.03401l0 0c0 -3.9616394 3.2115326 -7.173172 7.173172 -7.173172l2.0832672 0l0 0c1.9024506 0 3.7269745 0.7557373 5.0722046 2.1009674c1.3452148 1.3452301 2.1009674 3.169754 2.1009674 5.0722046l0 20.168c0 3.9616394 -3.2115326 7.173172 -7.173172 7.173172l-2.0832672 0c-3.9616394 0 -7.173172 -3.2115326 -7.173172 -7.173172z" fill-rule="evenodd"/><path stroke="#648fff" stroke-width="1.0" stroke-linejoin="round" stroke-linecap="butt" d="m140.3837 187.03401l0 0c0 -3.9616394 3.2115326 -7.173172 7.173172 -7.173172l2.0832672 0l0 0c1.9024506 0 3.7269745 0.7557373 5.0722046 2.1009674c1.3452148 1.3452301 2.1009674 3.169754 2.1009674 5.0722046l0 20.168c0 3.9616394 -3.2115326 7.173172 -7.173172 7.173172l-2.0832672 0c-3.9616394 0 -7.173172 -3.2115326 -7.173172 -7.173172z" fill-rule="evenodd"/><g filter="url(#shadowFilter-p.3)"><use xlink:href="#p.3" transform="matrix(1.0 0.0 0.0 1.0 0.0 2.0)"/></g><defs><filter id="shadowFilter-p.3" filterUnits="userSpaceOnUse"><feGaussianBlur in="SourceAlpha" stdDeviation="2.0" result="blur"/><feComponentTransfer in="blur" color-interpolation-filters="sRGB"><feFuncR type="linear" slope="0" intercept="0.0"/><feFuncG type="linear" slope="0" intercept="0.0"/><feFuncB type="linear" slope="0" intercept="0.0"/><feFuncA type="linear" slope="0.7" intercept="0"/></feComponentTransfer></filter></defs><g id="p.3"><path fill="#ffffff" d="m117.55455 165.118l19.253067 0l0 0c8.201599 0 16.067276 3.258072 21.866684 9.05748c5.799408 5.799408 9.05748 13.6651 9.05748 21.8667l0 20.935043c0 5.5168457 -4.472275 9.9891205 -9.9891205 9.9891205l-61.123154 0c-5.5168457 0 -9.989128 -4.472275 -9.989128 -9.9891205l0 -20.935043l0 0c0 -17.078949 13.845222 -30.92418 30.924171 -30.92418z" fill-rule="evenodd"/><path stroke="#648fff" stroke-width="8.0" stroke-linejoin="round" stroke-linecap="butt" d="m117.55455 165.118l19.253067 0l0 0c8.201599 0 16.067276 3.258072 21.866684 9.05748c5.799408 5.799408 9.05748 13.6651 9.05748 21.8667l0 20.935043c0 5.5168457 -4.472275 9.9891205 -9.9891205 9.9891205l-61.123154 0c-5.5168457 0 -9.989128 -4.472275 -9.989128 -9.9891205l0 -20.935043l0 0c0 -17.078949 13.845222 -30.92418 30.924171 -30.92418z" fill-rule="evenodd"/></g><path fill="#648fff" d="m86.63038 185.7875l81.1014 0c1.8310547E-4 0 3.5095215E-4 6.1035156E-5 4.8828125E-4 1.9836426E-4c1.2207031E-4 1.2207031E-4 1.8310547E-4 2.89917E-4 1.8310547E-4 4.7302246E-4l-6.713867E-4 34.51091c0 3.6713715 -2.976242 6.6476135 -6.6476135 6.6476135l-67.80617 0c-3.671379 0 -6.647621 -2.976242 -6.647621 -6.6476135l0 -34.51158l0 0c0 -3.8146973E-4 3.0517578E-4 -6.866455E-4 6.790161E-4 -6.866455E-4z" fill-rule="evenodd"/><path stroke="#648fff" stroke-width="1.0" stroke-linejoin="round" stroke-linecap="butt" d="m86.63038 185.7875l81.1014 0c1.8310547E-4 0 3.5095215E-4 6.1035156E-5 4.8828125E-4 1.9836426E-4c1.2207031E-4 1.2207031E-4 1.8310547E-4 2.89917E-4 1.8310547E-4 4.7302246E-4l-6.713867E-4 34.51091c0 3.6713715 -2.976242 6.6476135 -6.6476135 6.6476135l-67.80617 0c-3.671379 0 -6.647621 -2.976242 -6.647621 -6.6476135l0 -34.51158l0 0c0 -3.8146973E-4 3.0517578E-4 -6.866455E-4 6.790161E-4 -6.866455E-4z" fill-rule="evenodd"/><path fill="#648fff" d="m153.46924 211.03401l0 0c0 -3.9616394 3.2115326 -7.173172 7.1731567 -7.173172l2.0832825 0l0 0c1.9024353 0 3.7269592 0.7557373 5.0721893 2.1009674c1.3452301 1.3452301 2.1009674 3.169754 2.1009674 5.0722046l0 20.168c0 3.9616394 -3.2115326 7.173172 -7.1731567 7.173172l-2.0832825 0c-3.9616241 0 -7.1731567 -3.2115326 -7.1731567 -7.173172z" fill-rule="evenodd"/><path stroke="#648fff" stroke-width="1.0" stroke-linejoin="round" stroke-linecap="butt" d="m153.46924 211.03401l0 0c0 -3.9616394 3.2115326 -7.173172 7.1731567 -7.173172l2.0832825 0l0 0c1.9024353 0 3.7269592 0.7557373 5.0721893 2.1009674c1.3452301 1.3452301 2.1009674 3.169754 2.1009674 5.0722046l0 20.168c0 3.9616394 -3.2115326 7.173172 -7.1731567 7.173172l-2.0832825 0c-3.9616241 0 -7.1731567 -3.2115326 -7.1731567 -7.173172z" fill-rule="evenodd"/><path fill="#648fff" d="m84.3837 211.03401l0 0c0 -3.9616394 3.2115402 -7.173172 7.1731644 -7.173172l2.0832748 0l0 0c1.9024429 0 3.7269669 0.7557373 5.072197 2.1009674c1.3452301 1.3452301 2.100975 3.169754 2.100975 5.0722046l0 20.168c0 3.9616394 -3.2115402 7.173172 -7.173172 7.173172l-2.0832748 0c-3.9616241 0 -7.1731644 -3.2115326 -7.1731644 -7.173172z" fill-rule="evenodd"/><path stroke="#648fff" stroke-width="1.0" stroke-linejoin="round" stroke-linecap="butt" d="m84.3837 211.03401l0 0c0 -3.9616394 3.2115402 -7.173172 7.1731644 -7.173172l2.0832748 0l0 0c1.9024429 0 3.7269669 0.7557373 5.072197 2.1009674c1.3452301 1.3452301 2.100975 3.169754 2.100975 5.0722046l0 20.168c0 3.9616394 -3.2115402 7.173172 -7.173172 7.173172l-2.0832748 0c-3.9616241 0 -7.1731644 -3.2115326 -7.1731644 -7.173172z" fill-rule="evenodd"/><g filter="url(#shadowFilter-p.4)"><use xlink:href="#p.4" transform="matrix(1.0 0.0 0.0 1.0 0.0 2.0)"/></g><defs><filter id="shadowFilter-p.4" filterUnits="userSpaceOnUse"><feGaussianBlur in="SourceAlpha" stdDeviation="2.0" result="blur"/><feComponentTransfer in="blur" color-interpolation-filters="sRGB"><feFuncR type="linear" slope="0" intercept="0.0"/><feFuncG type="linear" slope="0" intercept="0.0"/><feFuncB type="linear" slope="0" intercept="0.0"/><feFuncA type="linear" slope="0.32" intercept="0"/></feComponentTransfer></filter></defs><g id="p.4"><path fill="#000000" fill-opacity="0.0" d="m230.66135 -2.6929133l436.40945 0l0 307.02362l-436.40945 0z" fill-rule="evenodd"/><path fill="#ffb000" d="m305.8801 236.75645q-21.125 0 -33.109375 -8.296875q-11.984375 -8.3125 -16.734375 -22.671875q-4.75 -14.359375 -4.75 -33.109375l0 -68.59375q0 -19.6875 4.75 -34.15625q4.75 -14.484371 16.734375 -22.312496q11.984375 -7.84375 33.109375 -7.84375q19.9375 0 31.203125 6.765625q11.28125 6.765625 16.015625 19.343746q4.75 12.578125 4.75 29.1875l0 16.140625l-33.703125 0l0 -16.609375q0 -8.078125 -0.828125 -14.71875q-0.828125 -6.640625 -4.515625 -10.546875q-3.671875 -3.921875 -12.6875 -3.921875q-9.015625 0 -13.171875 4.15625q-4.15625 4.140625 -5.34375 11.140625q-1.1875 7.0 -1.1875 15.78125l0 83.546875q0 10.4375 1.65625 17.203125q1.671875 6.765625 6.0625 10.203125q4.390625 3.4375 11.984375 3.4375q8.78125 0 12.453125 -4.140625q3.6875 -4.15625 4.625 -11.03125q0.953125 -6.890625 0.953125 -15.4375l0 -17.328125l33.703125 0l0 15.4375q0 17.078125 -4.515625 30.25q-4.5 13.171875 -15.78125 20.65625q-11.265625 7.46875 -31.671875 7.46875zm66.688385 -2.609375l38.4375 -192.23438l37.5 0l38.453156 192.23438l-32.515656 0l-7.59375 -44.375l-33.46875 0l-7.828125 44.375l-32.984375 0zm44.375 -66.6875l26.109375 0l-13.046875 -80.6875l-13.0625 80.6875zm98.257996 66.6875l0 -166.35938l-30.62497 0l0 -25.874996l95.890594 0l0 25.874996l-30.140625 0l0 166.35938l-35.125 0z" fill-rule="nonzero"/></g><g filter="url(#shadowFilter-p.5)"><use xlink:href="#p.5" transform="matrix(1.0 0.0 0.0 1.0 0.0 2.0)"/></g><defs><filter id="shadowFilter-p.5" filterUnits="userSpaceOnUse"><feGaussianBlur in="SourceAlpha" stdDeviation="2.0" result="blur"/><feComponentTransfer in="blur" color-interpolation-filters="sRGB"><feFuncR type="linear" slope="0" intercept="0.0"/><feFuncG type="linear" slope="0" intercept="0.0"/><feFuncB type="linear" slope="0" intercept="0.0"/><feFuncA type="linear" slope="0.32" intercept="0"/></feComponentTransfer></filter></defs><g id="p.5"><path fill="#000000" fill-opacity="0.0" d="m230.66135 -2.6929133l436.40945 0l0 307.02362l-436.40945 0z" fill-rule="evenodd"/><path fill="#ffb000" d="m305.8801 236.75645q-21.125 0 -33.109375 -8.296875q-11.984375 -8.3125 -16.734375 -22.671875q-4.75 -14.359375 -4.75 -33.109375l0 -68.59375q0 -19.6875 4.75 -34.15625q4.75 -14.484371 16.734375 -22.312496q11.984375 -7.84375 33.109375 -7.84375q19.9375 0 31.203125 6.765625q11.28125 6.765625 16.015625 19.343746q4.75 12.578125 4.75 29.1875l0 16.140625l-33.703125 0l0 -16.609375q0 -8.078125 -0.828125 -14.71875q-0.828125 -6.640625 -4.515625 -10.546875q-3.671875 -3.921875 -12.6875 -3.921875q-9.015625 0 -13.171875 4.15625q-4.15625 4.140625 -5.34375 11.140625q-1.1875 7.0 -1.1875 15.78125l0 83.546875q0 10.4375 1.65625 17.203125q1.671875 6.765625 6.0625 10.203125q4.390625 3.4375 11.984375 3.4375q8.78125 0 12.453125 -4.140625q3.6875 -4.15625 4.625 -11.03125q0.953125 -6.890625 0.953125 -15.4375l0 -17.328125l33.703125 0l0 15.4375q0 17.078125 -4.515625 30.25q-4.5 13.171875 -15.78125 20.65625q-11.265625 7.46875 -31.671875 7.46875zm66.688385 -2.609375l38.4375 -192.23438l37.5 0l38.453156 192.23438l-32.515656 0l-7.59375 -44.375l-33.46875 0l-7.828125 44.375l-32.984375 0zm44.375 -66.6875l26.109375 0l-13.046875 -80.6875l-13.0625 80.6875zm98.257996 66.6875l0 -166.35938l-30.62497 0l0 -25.874996l95.890594 0l0 25.874996l-30.140625 0l0 166.35938l-35.125 0z" fill-rule="nonzero"/></g></g></svg>